<?xml version="1.0" encoding="UTF-8"?>
<svg width="512" height="512" viewBox="0 0 512 512" fill="none" xmlns="http://www.w3.org/2000/svg">
    <rect width="512" height="512" fill="#121212"/>
    <path d="M96 128h64c35.346 0 64 28.654 64 64v64c0 35.346-28.654 64-64 64h-64V128zm64 144c8.837 0 16-7.163 16-16v-64c0-8.837-7.163-16-16-16h-16v96h16z" fill="#ECB22E"/>
    <path d="M288 128h64c35.346 0 64 28.654 64 64v64c0 35.346-28.654 64-64 64h-64V128zm64 144c8.837 0 16-7.163 16-16v-64c0-8.837-7.163-16-16-16h-16v96h16z" fill="#ECB22E"/>
</svg> 